<svg viewBox="0 0 25 24" xmlns="http://www.w3.org/2000/svg"><path fill-rule="evenodd" clip-rule="evenodd" d="M15.039 3.962a.63.63 0 0 1 .394.11c.15.1.335.137.513.102l.261-.053c.178-.035.361-.037.535.013.858.247 1.652.786 2.327 1.46a5.223 5.223 0 0 1 1.29 2.116.5.5 0 0 1 .014.224l-.017.109c-.016.1.019.202.093.27a.295.295 0 0 1 .092.17c.202 1.264.032 2.88-.665 3.992a.186.186 0 0 1-.113.081c-.19.048-.195.317-.006.37l.43.123a.311.311 0 0 1 .14.086l3.214 3.623a.999.999 0 0 1-1.412 1.412l-3.74-4c-.836.566-2.381.72-3.405.74a.242.242 0 0 1-.217-.127.246.246 0 0 0-.208-.127l-.31-.009a.788.788 0 0 1-.458-.162l-.036-.028a.876.876 0 0 0-.817-.135.777.777 0 0 1-.64-.047c-.388-.224-.687-.496-1.05-.86a5.137 5.137 0 0 1-.644-.84.838.838 0 0 1-.124-.542.87.87 0 0 0-.308-.761l-.05-.041a.895.895 0 0 1-.31-.494c-.373-1.725.118-3.825 1.436-5.143.942-.942 2.517-1.545 3.791-1.632Zm.178 8.874a3.348 3.348 0 1 0 0-6.696 3.348 3.348 0 0 0 0 6.696Z"/><path d="M2.666 5.04H3.4a.61.61 0 0 1 .373.127.61.61 0 0 0 .739.005l.01-.008A.627.627 0 0 1 4.9 5.04h4.334a6.948 6.948 0 0 0-1.2 3H2.665a1.5 1.5 0 1 1 0-3Zm5.47 6h-5.47a1.5 1.5 0 1 0 0 3h1.89a1 1 0 0 0 .463-.114l.4-.21a1 1 0 0 1 .9-.012l.481.234a1 1 0 0 0 .438.101H9.6c-.681-.743-1.204-1.724-1.464-3Zm-5.47 6a1.5 1.5 0 1 0 0 3h7.207a1 1 0 0 0 .271-.038l1.717-.483a2 2 0 0 1 .988-.025l2.271.52a.99.99 0 0 0 .223.025h4.323c.483 0 1.088-.422 1.363-.777l-2.014-2.223H8.137a1 1 0 0 0-.44.102l-.452.222a1 1 0 0 1-.903-.01l-.384-.2a1 1 0 0 0-.462-.114h-2.83Z"/></svg>