<svg viewBox="0 0 25 24" xmlns="http://www.w3.org/2000/svg"><path d="m11.832 14.966-5.799 5.539a.948.948 0 0 1-1.24.059l-.055-.043a.764.764 0 0 1-.278-.461.764.764 0 0 0-.751-.625h-.06a.835.835 0 0 1-.516-.179l-.11-.086c-.393-.31-.438-.816-.08-1.167 1.648-1.617 6.093-5.781 6.471-6.122.354-.32.134-.622.016-.744-.04-.04-.08-.075-.117-.115-.302-.324-3.958-4.056-4.853-5.024a.977.977 0 0 1 .05-1.377l1.549-1.466a1.052 1.052 0 0 1 1.435.006c.264.25.578.544.905.85.166.156.144.742.313.9.193.18.881.204 1.065.375.31.29 2.729 2.666 2.896 2.824.192.18.49.184.685.006.963-.88 3.696-3.381 4.989-4.584a1.03 1.03 0 0 1 1.335-.057l1.15.906a1 1 0 0 1 .128 1.45l-.893 1.006a1 1 0 0 1-.327.243l-.65.301a1 1 0 0 0-.52.57l-.277.775a.998.998 0 0 1-.194.327l-2.042 2.3c-.28.317-.28.738.009 1.046.379.406.95 1.012 1.585 1.692.341.365.218.965.577 1.353.331.358 1.145.504 1.458.848a59.208 59.208 0 0 1 1.475 1.666c.312.372.21.87-.192 1.142l-1.664 1.133a.874.874 0 0 1-1.117-.084 431.084 431.084 0 0 1-5.292-5.237c-.448-.465-.821-.19-.955-.058-.037.037-.071.076-.109.112Z"/></svg>