<svg width="32" height="22" viewBox="0 0 32 22" fill="none" xmlns="http://www.w3.org/2000/svg">
<g clip-path="url(#clip0_11806_134339)">
<path d="M8 0H24V22H8V0Z" fill="white"/>
<path d="M24 0H32V22H24V0Z" fill="#FF0000"/>
<path d="M16 3.14282L14.7422 5.51298C14.5993 5.77042 14.3436 5.74667 14.0879 5.60323L13.178 5.12635L13.8567 8.7666C13.9986 9.43158 13.5408 9.43158 13.3152 9.14469L11.7265 7.34736L11.4689 8.25932C11.4388 8.37997 11.3082 8.50536 11.1117 8.47496L9.10275 8.04843L9.63013 9.98636C9.74294 10.4186 9.83131 10.5972 9.51732 10.7112L8.80005 11.0513L12.2595 13.8898C12.3958 13.9971 12.4644 14.1899 12.4165 14.3647L12.1138 15.3688C13.3039 15.2302 14.3709 15.0221 15.5629 14.8939C15.6682 14.8815 15.844 15.0573 15.8431 15.1808L15.6851 18.8571H16.2642L16.173 15.1884C16.173 15.0649 16.3328 14.8815 16.4372 14.8939C17.6292 15.0221 18.6962 15.2302 19.8872 15.3688L19.5836 14.3657C19.5614 14.2796 19.5645 14.1888 19.5926 14.1044C19.6206 14.0201 19.6724 13.9458 19.7415 13.8907L23.2 11.0503L22.4837 10.7112C22.1688 10.5972 22.2562 10.4186 22.37 9.9873L22.8973 8.04938L20.8884 8.47496C20.6919 8.50536 20.5613 8.37997 20.5312 8.25932L20.2736 7.34736L18.6849 9.14469C18.4593 9.43158 18.0015 9.43158 18.1434 8.7666L18.8221 5.12635L17.9122 5.60323C17.6565 5.74667 17.4008 5.77042 17.2579 5.51298L16 3.14282Z" fill="#FF0000"/>
<path d="M0 0H8V22H0V0Z" fill="#0A17A7"/>
</g>
<defs>
<clipPath id="clip0_11806_134339">
<rect width="32" height="22" rx="2" fill="white"/>
</clipPath>
</defs>
</svg>
