<svg fill="none" height="36" viewBox="0 0 108 36" width="108" xmlns="http://www.w3.org/2000/svg"><path d="m67 26.9515c0 2.2358-1.8127 4.0485-4.0485 4.0485h-17.9354c-2.2181 0-4.0161-1.798-4.0161-4.0156v-18.11294c0-2.13822 1.7332-3.87146 3.8715-3.87146h18.257c2.1383 0 3.8715 1.73324 3.8715 3.87097z" fill="#ebab1f"/><path d="m43.4534 15.1192v6.6073l-1.1792.2648v-6.6074zm3.1218.8521c-.7276.1633-1.1743.9826-1.1743.9826v-.6158l-1.1444.2495v3.9421c.1398-.0534.2913-.0843.4497-.0843.2549 0 .4917.0765.6898.2069v-1.9245c.0088-.9218.2731-1.4601.8252-1.5842.4849-.1088.6668.2525.659.8105v3.01l1.1233-.2535.0078-3.0007c.0098-1.4694-.583-1.9303-1.4361-1.7386zm1.7004-.2863.6438-.1447v-.9247l1.1385-.2535v.9228l.8104-.1824-.0112.9992-.8115.1824-.0059 2.5021c.0054.3054.0589.4947.4016.4177.1338-.0299.2407-.0637.3628-.1103l.0029.9384c-.2843.1349-.4559.1893-.6898.2418-.6511.1505-1.213-.2731-1.213-1.1385l.0039-2.5957-.6443.1446zm3.9646 1.8921c.0005.1054-.0024.1917.0147.2932.0853.5069.3344.9007.8468.7859.4707-.1054.6271-.4182.7173-.7634l1.1929-.2677c-.1245.7644-.5378 1.7279-1.8401 2.0196-1.1679.2618-1.874-.4124-2.0676-1.5646-.2123-1.263.1167-3.1448 1.8474-3.5331 1.2773-.2864 1.875.4692 2.0392 1.4464.0652.3873.0613.6751.0388.9575zm1.6573-1.242c.0029-.0868-.0094-.1603-.0187-.2157-.0696-.4148-.2981-.7369-.8021-.6237-.5212.1167-.7781.557-.8257 1.2086zm3.9494-1.4523c-.7929.1878-1.1753.7404-1.1797 1.824l-.0103 2.0593-1.1375.2554v-4.9639l1.0978-.2461c.0142.1216.0402.4893.0382.8924.1849-.6355.4384-.962 1.191-1.1307v1.3096zm4.0406 2.6727-.0064.0015-1.1419.2579c-.0785-.1427-.1574-.3692-.1917-.5286-.1618.3427-.3834.7374-1.1866.9179-.8531.1917-1.338-.3893-1.4439-.9502-.2506-1.3234.6992-1.9662 1.671-2.2138.3495-.0892.6437-.1417.9757-.2255l-.0167-.2976c-.0074-.3624-.0912-.8037-.7016-.6664-.5438.1221-.5722.4663-.6208.7169l-1.1625.2608c.0147-.7987.3633-1.5695 1.7097-1.872 1.0537-.2368 1.9299.076 1.922 1.3714v2.3545s.028.3971.0731.5883c.0456.1942.1206.2849.1206.2849zm-1.3415-1.9362c-.2844.0637-.5236.1368-.7438.2152-.6148.253-.8222.5394-.7457.9434.0519.2755.251.4515.6192.3687.786-.1765.8546-.9203.8679-1.4499zm5.4449-.632c-.0638.9531-.5085 1.8293-1.7882 2.1166-1.0958.2462-1.8068-.3319-2.0225-1.4719-.2608-1.3787.1334-3.2591 1.7391-3.6194 1.4052-.3158 1.9632.6996 2.0196 1.3194l-1.1042.2481c-.0779-.3658-.2579-.7183-.7683-.6036-.8031.1805-.8703 1.5754-.7261 2.3383.125.6619.4236.9012.833.8095.3766-.0843.5923-.3726.6791-.8806zm-18.6802 8.4381-1.6102-1.0958s-.0005 2.5712-.0005 2.6893c0 .0824-.0672.1496-.149.1496-.0824 0-.1486-.0672-.1486-.1496 0-.0289-.0034-2.9403-.0034-3.2958 0-.381-.3094-.6913-.6904-.6913-.3824 0-.6913.3103-.6913.6913l.001 5.742c0 1.0306.8389 1.871 1.87 1.871h.1235c1.0169 0 1.8333-.8242 1.8333-1.8416 0 0 .001-2.9997.001-3.0301 0-.3986-.2202-.7972-.5354-1.039zm-4.6722-.856c-.2848.0686-.4609.355-.3922.6398.0686.2849.355.4609.6398.3923l.8046-.1932v-1.0919zm0 1.4067c-.2848.0686-.4609.3549-.3922.6398.0686.2849.355.4609.6398.3923l.8046-.1932v-1.0919zm-.3922 2.047c.0681.2849.355.4609.6398.3922l.8046-.1931v-1.092l-1.0522.2526c-.2848.0686-.4604.3554-.3922.6403z" fill="#000"/></svg>