<svg fill="none" height="36" viewBox="0 0 108 36" width="108" xmlns="http://www.w3.org/2000/svg"><path d="m23.7858 11.4229h-7.3214v13.1567h7.3214z" fill="#ff5f00"/><path d="m16.9282 18.0001c-.0011-1.2671.286-2.5178.8397-3.6575.5536-1.1397 1.3594-2.1386 2.3561-2.9208-1.2343-.9703-2.7167-1.57365-4.2778-1.7412s-3.1378.10748-4.5499.7937c-1.41212.6861-2.60272 1.7558-3.43568 3.0866-.83296 1.3309-1.27468 2.8692-1.27468 4.4392 0 1.5701.44172 3.1084 1.27468 4.4393.83296 1.3308 2.02356 2.4004 3.43568 3.0866 1.4121.6862 2.9888.9612 4.5499.7937 1.5611-.1676 3.0435-.7709 4.2778-1.7412-.9967-.7823-1.8024-1.7811-2.3561-2.9208s-.8408-2.3905-.8397-3.6576z" fill="#eb001b"/><path d="m33.6637 18.0001c0 1.57-.4417 3.1084-1.2746 4.4392-.8329 1.3309-2.0234 2.4005-3.4355 3.0867-1.4122.6862-2.9888.9612-4.5499.7937-1.561-.1676-3.0434-.7709-4.2777-1.7412.9959-.7831 1.801-1.782 2.3546-2.9216.5535-1.1395.8412-2.3899.8412-3.6568s-.2877-2.5172-.8412-3.6568c-.5536-1.1395-1.3587-2.1385-2.3546-2.9216 1.2343-.9702 2.7167-1.57355 4.2777-1.7411 1.5611-.16755 3.1377.10749 4.5499.7937 1.4121.6862 2.6026 1.7558 3.4355 3.0867.8329 1.3308 1.2746 2.8691 1.2746 4.4391z" fill="#f79e1b"/><path d="m48.2876 20.9852v-3.5147c0-1.3445-.819-2.2249-2.2249-2.2249-.7029 0-1.4673.232-1.9928.9964-.4095-.6415-.9964-.9964-1.8768-.9964-.587 0-1.1739.1774-1.638.8189v-.7029h-1.2284v5.6236h1.2284v-3.1053c0-.9964.5255-1.4673 1.3445-1.4673s1.2285.5255 1.2285 1.4673v3.1053h1.2284v-3.1053c0-.9964.5869-1.4673 1.3445-1.4673.819 0 1.2285.5255 1.2285 1.4673v3.1053zm18.2221-5.6236h-1.9928v-1.6994h-1.2285v1.6994h-1.1124v1.1124h1.1124v2.5798c0 1.2899.5256 2.0474 1.9315 2.0474.5255 0 1.1124-.1774 1.5219-.4095l-.3549-1.0578c-.3549.232-.7644.2935-1.0578.2935-.587 0-.819-.3549-.819-.935v-2.5184h1.9928v-1.1124zm10.4283-.1229c-.703 0-1.1739.3549-1.4673.819v-.7029h-1.2285v5.6236h1.2285v-3.1667c0-.935.4094-1.4673 1.1738-1.4673.2321 0 .5255.0614.7644.116l.3549-1.1739c-.2457-.0478-.5938-.0478-.8258-.0478zm-15.7584.587c-.5869-.4095-1.4059-.587-2.2863-.587-1.4059 0-2.3409.703-2.3409 1.8154 0 .935.7029 1.4674 1.9314 1.638l.5869.0614c.6416.116.9965.2935.9965.5869 0 .4095-.471.703-1.2899.703-.819 0-1.4674-.2935-1.8768-.5869l-.587.935c.6416.4709 1.5219.7029 2.4023.7029 1.638 0 2.5798-.7644 2.5798-1.8154 0-.9964-.7644-1.5219-1.9314-1.6994l-.5869-.0614c-.5255-.0614-.935-.1774-.935-.5255 0-.4095.4095-.6415 1.0578-.6415.703 0 1.4059.2935 1.7608.4709zm32.6838-.587c-.7029 0-1.1738.3549-1.4673.819v-.7029h-1.2285v5.6236h1.2285v-3.1667c0-.935.4095-1.4673 1.1739-1.4673.232 0 .5255.0614.7643.116l.3549-1.1602c-.2388-.0614-.5869-.0615-.8258-.0615zm-15.6969 2.9347c0 1.6994 1.1738 2.9278 2.9892 2.9278.819 0 1.4059-.1774 1.9928-.6415l-.5869-.9964c-.4709.3549-.935.5255-1.4673.5255-.9964 0-1.6994-.703-1.6994-1.8154 0-1.0578.703-1.7608 1.6994-1.8154.5255 0 .9964.1775 1.4673.5255l.5869-.9964c-.5869-.4709-1.1738-.6415-1.9928-.6415-1.8154-.0068-2.9892 1.2284-2.9892 2.9278zm11.3632 0v-2.8118h-1.2285v.7029c-.4094-.5255-.9964-.8189-1.7608-.8189-1.5833 0-2.8118 1.2284-2.8118 2.9278s1.2285 2.9278 2.8118 2.9278c.819 0 1.406-.2934 1.7608-.8189v.7029h1.2285zm-4.5112 0c0-.9964.6416-1.8154 1.6994-1.8154.9964 0 1.6994.7644 1.6994 1.8154 0 .9964-.703 1.8154-1.6994 1.8154-1.051-.0614-1.6994-.8258-1.6994-1.8154zm-14.7005-2.9347c-1.638 0-2.8118 1.1739-2.8118 2.9279 0 1.7608 1.1738 2.9278 2.8732 2.9278.819 0 1.6379-.232 2.2863-.7644l-.5869-.8804c-.471.3549-1.0579.587-1.638.587-.7644 0-1.5219-.3549-1.6994-1.3445h4.1563c0-.1775 0-.2935 0-.4709.0546-1.8086-1.0032-2.9825-2.5797-2.9825zm0 1.0579c.7643 0 1.2898.4709 1.4059 1.3445h-2.9279c.1161-.7576.6416-1.3445 1.522-1.3445zm30.52 1.8768v-5.0367h-1.2281v2.9278c-.4095-.5255-.9964-.8189-1.7608-.8189-1.5833 0-2.8118 1.2284-2.8118 2.9278s1.2285 2.9278 2.8118 2.9278c.819 0 1.4059-.2934 1.7608-.8189v.7029h1.2281zm-4.5108 0c0-.9964.6415-1.8154 1.6993-1.8154.9965 0 1.6994.7644 1.6994 1.8154 0 .9964-.7029 1.8154-1.6994 1.8154-1.0578-.0614-1.6993-.8258-1.6993-1.8154zm-41.1261 0v-2.8118h-1.2285v.7029c-.4095-.5255-.9964-.8189-1.7608-.8189-1.5833 0-2.8118 1.2284-2.8118 2.9278s1.2285 2.9278 2.8118 2.9278c.819 0 1.4059-.2934 1.7608-.8189v.7029h1.2285zm-4.5658 0c0-.9964.6415-1.8154 1.6994-1.8154.9964 0 1.6993.7644 1.6993 1.8154 0 .9964-.7029 1.8154-1.6993 1.8154-1.0579-.0614-1.6994-.8258-1.6994-1.8154z" fill="#fff"/></svg>