<svg viewBox="0 0 25 24" xmlns="http://www.w3.org/2000/svg"><path fill-rule="evenodd" clip-rule="evenodd" d="M4.674 2A2 2 0 0 0 2.68 4.166l.215 2.585a2 2 0 0 1-.02.495l-.349 2.09a2 2 0 0 0-.027.33V20a2 2 0 0 0 2 2h16a2 2 0 0 0 2-2v-.334c0-.11-.01-.22-.027-.33l-.335-2.007a2.005 2.005 0 0 1 0-.658l.335-2.008a2 2 0 0 0 .027-.329V4a2 2 0 0 0-2-2H4.674Zm5.956 1.667a1 1 0 0 0-.999 1.045l.143 3.121-.19 2.084v9.416a1 1 0 0 0 1 1h8.833a1 1 0 0 0 1-1v-.837c0-.163-.02-.326-.06-.485l-.27-1.079a1.998 1.998 0 0 1-.047-.706l.377-3.393V4.667a1 1 0 0 0-1-1H10.63ZM4.167 5.834a.5.5 0 0 1 .5-.5h3.167a.5.5 0 0 1 .5.5V6.5a.5.5 0 0 1-.5.5H4.667a.5.5 0 0 1-.5-.5v-.666Zm0 5.833a.5.5 0 0 1 .5-.5h3.167a.5.5 0 0 1 .5.5v.667a.5.5 0 0 1-.5.5H4.667a.5.5 0 0 1-.5-.5v-.667Zm.5 5.333a.5.5 0 0 0-.5.5v.667a.5.5 0 0 0 .5.5h3.167a.5.5 0 0 0 .5-.5V17.5a.5.5 0 0 0-.5-.5H4.667Z"/><path d="M16.354 7.566a.686.686 0 0 0-.333.167l-.1.093a.997.997 0 0 0-.138.154l-.17.236a.628.628 0 0 1-.293.224.628.628 0 0 0-.209.126l-.228.21-.32.293-.641.587-.64.587-.252.23a1.001 1.001 0 0 0-.125.138l-.121.162a1 1 0 0 1-.195.196l-.417.317a.423.423 0 0 0-.172.336v.787c0 .116.05.227.14.31l.402.368c.066.06.139.11.218.15a.986.986 0 0 1 .337.284l.13.17a.99.99 0 0 0 .121.134l.574.526.722.511a.999.999 0 0 1 .151.132l1.049 1.117.171.157a.694.694 0 0 0 .347.172l.18.032c.1.017.202-.012.277-.081l.052-.047a.154.154 0 0 0 .05-.104l.002-.044a.114.114 0 0 1 .133-.105.114.114 0 0 0 .116-.054l.122-.204a.462.462 0 0 1 .142-.148l.383-.254a.402.402 0 0 0 .049-.632l-.08-.073-.425-.389-.849-.778-.85-.778-.424-.389-.069-.063a.442.442 0 0 1 0-.651l.031-.029a.538.538 0 0 0 .069-.076l.223-.3a1 1 0 0 1 .31-.274l.187-.107a1 1 0 0 0 .182-.132l.341-.312.769-.705a.232.232 0 0 0 .075-.182.232.232 0 0 1 .193-.24l.127-.021a.378.378 0 0 0 .192-.094l.002-.002a.39.39 0 0 0 .126-.291v-.025a.446.446 0 0 0-.145-.325l-.648-.594a.698.698 0 0 0-.161-.11.7.7 0 0 1-.277-.248l-.066-.102-.002-.004a.016.016 0 0 0-.014-.003l-.331.064Z"/></svg>