<svg fill="none" height="36" viewBox="0 0 108 36" width="108" xmlns="http://www.w3.org/2000/svg"><g fill="#fff"><path d="m80.1653 25.4299c-1.3066 0-2.6133 0-3.9395 0-.1442-.6764-.2988-1.3381-.4209-2.0054-.0506-.2769-.1413-.3843-.4578-.3803-1.5797.0198-3.1598.0149-4.7395.0027-.2392-.0019-.3343.0753-.407.2879-.2177.636-.4557 1.2654-.6992 1.8923-.033.0852-.1426.202-.2176.2025-1.4239.0122-2.8481.009-4.3131.009.267-.6278.5199-1.2273.7765-1.8251 1.836-4.2773 3.6727-8.5543 5.5093-12.8314.3978-.92632.9941-1.31422 2.02-1.31428 1.1431-.00009 2.2863-.00003 3.4587-.00003.1143.52147.2293 1.03531.3394 1.55021.9036 4.2269 1.8049 8.4542 2.7105 12.6807.1161.5413.2529 1.0785.3802 1.6175zm-5.1561-5.6723c-.4198-1.9654-.834-3.9044-1.2483-5.8435-.0168-.0033-.0337-.0065-.0507-.0098-.7217 1.944-1.4434 3.8879-2.1732 5.8533z"/><path d="m63.0029 9.18359c.5198.09426 1.0437.17176 1.5586.2877.4696.1058.9296.25327 1.4288.39211-.2516 1.149-.4972 2.2704-.7375 3.3676-.6587-.1886-1.2882-.4057-1.9354-.5452-.8851-.1907-1.7919-.2634-2.6774-.0225-.3601.0979-.7243.286-1.0077.523-.4861.4067-.4927.9921-.0283 1.419.3201.2944.6995.536 1.0787.7586.8619.5061 1.7669.9463 2.6046 1.487.9866.6367 1.7062 1.5119 1.8572 2.6955.2673 2.0934-.5255 3.7423-2.3264 4.9088-1.1325.7336-2.414 1.0612-3.7492 1.1826-1.8645.1693-3.6922-.0347-5.4736-.606-.1195-.0384-.2357-.0862-.3521-.1328-.0348-.0137-.065-.0384-.1182-.0708.2516-1.1507.5036-2.3032.7627-3.4879.3037.1295.5888.2592.8801.3739 1.3918.5476 2.8291.7981 4.3188.5256.3876-.071.7828-.238 1.1113-.453.7129-.4667.7812-1.3435.1322-1.8916-.4267-.3602-.9394-.6262-1.4256-.9155-.7592-.4514-1.5658-.8364-2.2843-1.3418-.9209-.6479-1.588-1.5117-1.7144-2.6597-.1893-1.7191.464-3.115 1.8154-4.1995 1.1758-.94374 2.5718-1.36253 4.0592-1.53842.0826-.00978.1631-.03738.2445-.05669z"/><path d="m47.6832 9.48101c-.2214.51999-.4308 1.01579-.6432 1.51039-2.0276 4.7227-4.0576 9.4443-6.0769 14.1704-.0961.2252-.2138.2843-.4476.2824-1.2798-.0103-2.5596-.0145-3.8391.0027-.2713.0037-.3597-.0892-.4222-.3268-1.0848-4.128-2.1879-8.2515-3.2604-12.3825-.1968-.7579-.5907-1.2755-1.3295-1.5932-1.1842-.5092-2.4136-.8669-3.6675-1.15762-.0555-.01287-.1108-.02694-.1628-.03965.0062-.47911.0062-.47912.4729-.47913 2.2395 0 4.4791-.0005 6.7186.00021 1.0622.00034 1.8289.60289 2.0297 1.62939.5686 2.9063 1.1251 5.8148 1.6867 8.7223.0245.1272.0525.2537.0896.4328.0582-.1066.0987-.1665.1251-.2319 1.3909-3.4352 2.7823-6.8702 4.1662-10.30815.0756-.18767.1687-.25133.3763-.24973 1.299.01006 2.5982.00487 3.8973.00557.084.00005.1678.00713.2868.01252z"/><path d="m45.9873 25.4386c1.1699-5.3388 2.3317-10.64 3.4963-15.95422h4.2433c-.1766.80942-.3492 1.60332-.5231 2.39702-.9614 4.3895-1.9263 8.7783-2.8771 13.1698-.066.3052-.1768.4021-.5012.396-1.1628-.0219-2.3263-.0086-3.4897-.0086-.1043 0-.2087 0-.3485 0z"/></g></svg>